<svg xmlns="http://www.w3.org/2000/svg" viewBox="0 0 40 40"><defs><style>.cls-1{fill:#4e598f;}.cls-2{fill:#364270;}.cls-3{fill:#fff;}.cls-4{fill:#d1d1d1;}</style></defs><title>facebook</title><g id="Layer_2" data-name="Layer 2"><g id="Layer_1-2" data-name="Layer 1"><circle class="cls-1" cx="20" cy="20" r="20"/><path class="cls-2" d="M40,18.88,30.55,9.46c-.16,0-.55-.13-.72-.1-4,.67-7.94,0-11.85,1.08-1.89.54-2,2.83-2.69,4.31-.95,2.69-.81,5.65-2,8.21-.81,1.75-2.7,2.83-3.37,4.85-.23.84-.21,1.91-.47,2.71L18.89,40c.36,0,.74,0,1.11,0A20,20,0,0,0,40,20C40,19.63,40,19.25,40,18.88Z"/><path class="cls-3" d="M28.36,8.55H11.64a3.09,3.09,0,0,0-3.09,3.09V28.36a3.09,3.09,0,0,0,3.09,3.09h8.25V23.27H17.77a.51.51,0,0,1-.5-.5V20.13a.5.5,0,0,1,.5-.5h2.13V17.08c0-3,1.8-4.57,4.44-4.57H26.5a.5.5,0,0,1,.5.5v2.23a.51.51,0,0,1-.5.5H25.17c-1.44,0-1.72.68-1.72,1.68v2.21h3.16a.49.49,0,0,1,.49.56l-.31,2.63a.5.5,0,0,1-.5.45H23.47l0,8.18h4.91a3.09,3.09,0,0,0,3.09-3.09V11.64a3.09,3.09,0,0,0-3.09-3.09Z"/><polygon class="cls-3" points="19.89 31.45 19.9 23.27 19.86 23.27 19.86 31.45 19.89 31.45"/><path class="cls-4" d="M28.36,8.55H19.87V19.63h0V17.08c0-3,1.8-4.57,4.44-4.57H26.5a.5.5,0,0,1,.5.5v2.23a.51.51,0,0,1-.5.5H25.17c-1.44,0-1.72.68-1.72,1.68v2.21h3.16a.49.49,0,0,1,.49.56l-.31,2.63a.5.5,0,0,1-.5.45H23.47l0,8.18h4.91a3.09,3.09,0,0,0,3.09-3.09V11.64A3.09,3.09,0,0,0,28.36,8.55Z"/></g></g></svg>