<svg xmlns="http://www.w3.org/2000/svg" viewBox="0 0 40 40"><defs><style>.cls-1{fill:#6c27b3;}.cls-2{fill:#501a96;}.cls-3{fill:#fff;}.cls-4{fill:#d1d1d1;}</style></defs><title>instagram</title><g id="Layer_2" data-name="Layer 2"><g id="Layer_1-2" data-name="Layer 1"><circle class="cls-1" cx="20" cy="20" r="20"/><path class="cls-2" d="M29.27,10.38a33.06,33.06,0,0,1-7.38.06c-3.51-.27-8.62-1.89-10.51,1.34-3,5.18-1.53,11.8-.83,17.67L21.08,40A20,20,0,0,0,40,21.08Z"/><path class="cls-3" d="M24.63,8.55H15.37a6.83,6.83,0,0,0-6.82,6.82v9.26a6.83,6.83,0,0,0,6.82,6.82h9.26a6.83,6.83,0,0,0,6.82-6.82V15.37a6.83,6.83,0,0,0-6.82-6.82Zm4.51,16.08a4.51,4.51,0,0,1-4.51,4.51H15.37a4.51,4.51,0,0,1-4.51-4.51V15.37a4.51,4.51,0,0,1,4.51-4.51h9.26a4.51,4.51,0,0,1,4.51,4.51v9.26Z"/><path class="cls-3" d="M20,14.08A5.92,5.92,0,1,0,25.92,20,5.92,5.92,0,0,0,20,14.08Zm0,9.54A3.62,3.62,0,1,1,23.62,20,3.62,3.62,0,0,1,20,23.62Z"/><path class="cls-4" d="M27.35,14.12a1.42,1.42,0,1,1-1.42-1.42,1.41,1.41,0,0,1,1.42,1.42Z"/><path class="cls-4" d="M24.63,8.55H20v2.31h4.67a4.51,4.51,0,0,1,4.51,4.51v9.26a4.51,4.51,0,0,1-4.51,4.51H20v2.31h4.67a6.83,6.83,0,0,0,6.82-6.82V15.37A6.83,6.83,0,0,0,24.63,8.55Z"/><path class="cls-4" d="M20,14.08h0v2.3h0a3.62,3.62,0,0,1,0,7.24h0v2.3h0a5.92,5.92,0,0,0,0-11.84Z"/></g></g></svg>