<svg xmlns="http://www.w3.org/2000/svg" viewBox="0 0 40 40"><defs><style>.cls-1{fill:#4376b1;}.cls-2{fill:#369;}.cls-3{fill:#fff;}.cls-4{fill:#d1d1d1;}</style></defs><title>linkedin</title><g id="Layer_2" data-name="Layer 2"><g id="Layer_1-2" data-name="Layer 1"><circle class="cls-1" cx="20" cy="20" r="20"/><path class="cls-2" d="M39.92,18.25,30.84,9.16c-5.55.72-11.35.61-16.9.74-2.29,0-4.58,1.08-4.18,3.64A44.91,44.91,0,0,1,10,28.89a6.05,6.05,0,0,1-.86,2l9.07,9.07c.58,0,1.17.08,1.76.08A20,20,0,0,0,40,20C40,19.41,40,18.83,39.92,18.25Z"/><path class="cls-3" d="M29.38,8.55H10.62a2.07,2.07,0,0,0-2.07,2.07V29.38a2.07,2.07,0,0,0,2.07,2.07H29.38a2.07,2.07,0,0,0,2.07-2.07V10.62a2.07,2.07,0,0,0-2.07-2.07ZM15.64,28.32a.6.6,0,0,1-.61.6H12.47a.6.6,0,0,1-.6-.6V17.57a.6.6,0,0,1,.6-.61H15a.61.61,0,0,1,.61.61V28.32ZM13.75,16a2.44,2.44,0,1,1,2.44-2.44A2.44,2.44,0,0,1,13.75,16ZM29,28.37a.54.54,0,0,1-.55.55H25.74a.55.55,0,0,1-.56-.55v-5c0-.76.22-3.3-2-3.3-1.7,0-2,1.74-2.11,2.52v5.82a.55.55,0,0,1-.56.55H17.89a.54.54,0,0,1-.55-.55V17.52a.55.55,0,0,1,.55-.56h2.66a.56.56,0,0,1,.56.56v.94a3.76,3.76,0,0,1,3.55-1.68c4.41,0,4.38,4.12,4.38,6.39v5.2Z"/><path class="cls-4" d="M29.38,8.55H20V17h.59a.56.56,0,0,1,.56.56v.94a3.76,3.76,0,0,1,3.55-1.68c4.41,0,4.38,4.12,4.38,6.39v5.2a.54.54,0,0,1-.55.55H25.74a.55.55,0,0,1-.56-.55v-5c0-.76.22-3.3-2-3.3-1.7,0-2,1.74-2.11,2.52v5.82a.55.55,0,0,1-.56.55H20v2.53h9.42a2.07,2.07,0,0,0,2.07-2.07V10.62A2.07,2.07,0,0,0,29.38,8.55Z"/></g></g></svg>