<svg xmlns="http://www.w3.org/2000/svg" viewBox="0 0 40 40"><defs><style>.cls-1{fill:#65a2d9;}.cls-2{fill:#3a7ca5;}.cls-3{fill:#fff;}.cls-4{fill:#d1d1d1;}</style></defs><title>twitter</title><g id="Layer_2" data-name="Layer 2"><g id="Layer_1-2" data-name="Layer 1"><circle class="cls-1" cx="20" cy="20" r="20"/><path class="cls-2" d="M30.7,10.88a38.87,38.87,0,0,0-5.85,5.62c-4.17,5-9.27,12.16-16.2,11.1L21,40A20,20,0,0,0,40,20.18Z"/><path class="cls-3" d="M31.08,12.69a8.83,8.83,0,0,1-1.57.54,5,5,0,0,0,1.29-2.07.25.25,0,0,0-.37-.3,9.27,9.27,0,0,1-2.42,1,.39.39,0,0,1-.15,0,.67.67,0,0,1-.42-.16,5,5,0,0,0-3.27-1.23,5.28,5.28,0,0,0-1.56.24,4.78,4.78,0,0,0-3.22,3.44A5.14,5.14,0,0,0,19.27,16a.17.17,0,0,1,0,.14.2.2,0,0,1-.14.06h0a12.9,12.9,0,0,1-8.89-4.75.27.27,0,0,0-.43,0,5,5,0,0,0-.67,2.48,4.91,4.91,0,0,0,1.48,3.52A4.4,4.4,0,0,1,9.43,17a.25.25,0,0,0-.38.22,4.92,4.92,0,0,0,2.88,4.55h-.11a4,4,0,0,1-.83-.08.26.26,0,0,0-.29.34,4.94,4.94,0,0,0,3.91,3.36A9.07,9.07,0,0,1,9.5,27H8.93a.38.38,0,0,0-.37.29.4.4,0,0,0,.19.43,13.55,13.55,0,0,0,6.81,1.83,13.74,13.74,0,0,0,5.82-1.23,12.86,12.86,0,0,0,4.25-3.19,14,14,0,0,0,2.61-4.37A13.74,13.74,0,0,0,29.13,16v-.08a.83.83,0,0,1,.31-.65,9.59,9.59,0,0,0,2-2.16.26.26,0,0,0-.32-.38Z"/><path class="cls-4" d="M31.08,12.69a8.83,8.83,0,0,1-1.57.54,5,5,0,0,0,1.29-2.07.25.25,0,0,0-.37-.3,9.27,9.27,0,0,1-2.42,1,.39.39,0,0,1-.15,0,.67.67,0,0,1-.42-.16,5,5,0,0,0-3.27-1.23,5.28,5.28,0,0,0-1.56.24A4.83,4.83,0,0,0,20,12.79V28.85a13.68,13.68,0,0,0,1.43-.56,12.86,12.86,0,0,0,4.25-3.19A14.12,14.12,0,0,0,29.13,16v-.08a.83.83,0,0,1,.31-.65,9.59,9.59,0,0,0,2-2.16A.26.26,0,0,0,31.08,12.69Z"/></g></g></svg>