<svg xmlns="http://www.w3.org/2000/svg" viewBox="0 0 40 40"><defs><style>.cls-1{fill:#d22215;}.cls-2{fill:#a81411;}.cls-3{fill:#fff;}.cls-4{fill:#d1d1d1;}</style></defs><title>youtube</title><g id="Layer_2" data-name="Layer 2"><g id="Layer_1-2" data-name="Layer 1"><circle class="cls-1" cx="20" cy="20" r="20"/><path class="cls-2" d="M30.07,13.31c-.6.18-1.23.34-1.85.49-4.45.95-10.37-1.61-12.93,2.56-2.14,3.32-2.81,7.48-5.24,10.45l13,13A20,20,0,0,0,39.77,23Z"/><path class="cls-3" d="M26.69,11.9H13.31a4.76,4.76,0,0,0-4.76,4.76v6.69a4.76,4.76,0,0,0,4.76,4.75H26.69a4.76,4.76,0,0,0,4.76-4.75V16.66a4.76,4.76,0,0,0-4.76-4.76Zm-3.21,8.43-6.26,3a.25.25,0,0,1-.36-.23V16.93a.25.25,0,0,1,.36-.23l6.26,3.17a.26.26,0,0,1,0,.46Z"/><path class="cls-4" d="M26.69,11.9H19.87V18l3.61,1.83a.26.26,0,0,1,0,.46l-3.61,1.72V28.1h6.82a4.76,4.76,0,0,0,4.76-4.75V16.66A4.76,4.76,0,0,0,26.69,11.9Z"/></g></g></svg>